<svg xmlns="http://www.w3.org/2000/svg" version="1.1" xmlns:xlink="http://www.w3.org/1999/xlink" xmlns:svgjs="http://svgjs.com/svgjs" width="1440" height="560" preserveAspectRatio="none" viewBox="0 0 1440 560"><g mask="url(&quot;#SvgjsMask1128&quot;)" fill="none"><path d="M-35.63 192.1C106.34 195.45 204.9 383.13 495.44 393.7 785.99 404.27 877.55 657.97 1026.52 665.73" stroke="rgba(95, 209, 146, 1)" stroke-width="2"></path><path d="M-145.97 132.84C-15.29 134.88 78.29 284.85 350.93 295.24 623.58 305.63 704.54 573.63 847.84 583.85" stroke="rgba(95, 209, 146, 1)" stroke-width="2"></path><path d="M-231.13 115.59C-63.71 119.71 56.75 346.82 393.97 356.39 731.18 365.96 849.22 617.9 1019.06 623.41" stroke="rgba(95, 209, 146, 1)" stroke-width="2"></path><path d="M-117.08 429.41C-2.97 429.62 108.44 499.41 333.95 499.41 559.47 499.41 556.83 429.01 784.98 429.41 1013.13 429.81 1111.91 632.72 1236.01 637.67" stroke="rgba(95, 209, 146, 1)" stroke-width="2"></path><path d="M-153.73 119.28C-43 119.5 64.94 189.28 283.61 189.28 502.28 189.28 481.26 110.31 720.94 119.28 960.63 128.25 1004.04 543.11 1158.28 583.52" stroke="rgba(95, 209, 146, 1)" stroke-width="2"></path></g><defs><mask id="SvgjsMask1128"><rect width="1440" height="560" fill="#ffffff"></rect></mask></defs></svg>